ffmpeg version 6.1.1-3ubuntu5 Copyright (c) 2000-2023 the FFmpeg developers
  built with gcc 13 (Ubuntu 13.2.0-23ubuntu3)
  configuration: --prefix=/usr --extra-version=3ubuntu5 --toolchain=hardened --libdir=/usr/lib/x86_64-linux-gnu --incdir=/usr/include/x86_64-linux-gnu --arch=amd64 --enable-gpl --disable-stripping --disable-omx --enable-gnutls --enable-libaom --enable-libass --enable-libbs2b --enable-libcaca --enable-libcdio --enable-libcodec2 --enable-libdav1d --enable-libflite --enable-libfontconfig --enable-libfreetype --enable-libfribidi --enable-libglslang --enable-libgme --enable-libgsm --enable-libharfbuzz --enable-libmp3lame --enable-libmysofa --enable-libopenjpeg --enable-libopenmpt --enable-libopus --enable-librubberband --enable-libshine --enable-libsnappy --enable-libsoxr --enable-libspeex --enable-libtheora --enable-libtwolame --enable-libvidstab --enable-libvorbis --enable-libvpx --enable-libwebp --enable-libx265 --enable-libxml2 --enable-libxvid --enable-libzimg --enable-openal --enable-opencl --enable-opengl --disable-sndio --enable-libvpl --disable-libmfx --enable-libdc1394 --enable-libdrm --enable-libiec61883 --enable-chromaprint --enable-frei0r --enable-ladspa --enable-libbluray --enable-libjack --enable-libpulse --enable-librabbitmq --enable-librist --enable-libsrt --enable-libssh --enable-libsvtav1 --enable-libx264 --enable-libzmq --enable-libzvbi --enable-lv2 --enable-sdl2 --enable-libplacebo --enable-librav1e --enable-pocketsphinx --enable-librsvg --enable-libjxl --enable-shared
  libavutil      58. 29.100 / 58. 29.100
  libavcodec     60. 31.102 / 60. 31.102
  libavformat    60. 16.100 / 60. 16.100
  libavdevice    60.  3.100 / 60.  3.100
  libavfilter     9. 12.100 /  9. 12.100
  libswscale      7.  5.100 /  7.  5.100
  libswresample   4. 12.100 /  4. 12.100
  libpostproc    57.  3.100 / 57.  3.100
-vsync is deprecated. Use -fps_mode
Passing a number to -vsync is deprecated, use a string argument as described in the manual.
Input #0, rtsp, from 'rtsp://admin:1234Qwer@192.168.21.10:554/Streaming/Channels/101':
  Metadata:
    title           : Media Presentation
  Duration: N/A, start: 1744299065.874967, bitrate: N/A
  Stream #0:0: Video: hevc (Main), yuvj420p(pc, bt709), 1920x1080, 90k tbr, 90k tbn
Stream mapping:
  Stream #0:0 -> #0:0 (hevc (native) -> h264 (libx264))
Press [q] to stop, [?] for help
[swscaler @ 0x62754a6595c0] deprecated pixel format used, make sure you did set range correctly
    Last message repeated 3 times
[libx264 @ 0x627549492940] frame MB size (120x68) > level limit (1620)
[libx264 @ 0x627549492940] DPB size (1 frames, 8160 mbs) > level limit (0 frames, 8100 mbs)
[libx264 @ 0x627549492940] MB rate (244800) > level limit (40500)
[libx264 @ 0x627549492940] using cpu capabilities: MMX2 SSE2Fast SSSE3 SSE4.2 AVX FMA3 BMI2 AVX2
[libx264 @ 0x627549492940] profile Constrained Baseline, level 3.0, 4:2:0, 8-bit
[libx264 @ 0x627549492940] 264 - core 164 r3108 31e19f9 - H.264/MPEG-4 AVC codec - Copyleft 2003-2023 - http://www.videolan.org/x264.html - options: cabac=0 ref=1 deblock=0:0:0 analyse=0:0 me=dia subme=0 psy=1 psy_rd=1.00:0.00 mixed_ref=0 me_range=16 chroma_me=1 trellis=0 8x8dct=0 cqm=0 deadzone=21,11 fast_pskip=1 chroma_qp_offset=0 threads=12 lookahead_threads=12 sliced_threads=1 slices=12 nr=0 decimate=1 interlaced=0 bluray_compat=0 constrained_intra=0 bframes=0 weightp=0 keyint=30 keyint_min=16 scenecut=0 intra_refresh=0 rc_lookahead=0 rc=abr mbtree=0 bitrate=2000 ratetol=1.0 qcomp=0.60 qpmin=0 qpmax=69 qpstep=4 vbv_maxrate=2500 vbv_bufsize=3000 nal_hrd=none filler=0 ip_ratio=1.40 aq=0
Output #0, hls, to 'data/hls/stream2/stream2.m3u8':
  Metadata:
    title           : Media Presentation
    encoder         : Lavf60.16.100
  Stream #0:0: Video: h264, yuv420p(tv, bt709, progressive), 1920x1080, q=2-31, 2000 kb/s, 30 fps, 90k tbn
    Metadata:
      encoder         : Lavc60.31.102 libx264
    Side data:
      cpb: bitrate max/min/avg: 2500000/0/2000000 buffer size: 3000000 vbv_delay: N/A
frame=    0 fps=0.0 q=40.0 size=       0kB time=00:00:00.00 bitrate=N/A speed=   0x    frame=   28 fps=0.0 q=37.0 size=N/A time=00:00:00.93 bitrate=N/A dup=5 drop=1 speed=1.66x    frame=   42 fps= 39 q=34.0 size=N/A time=00:00:01.40 bitrate=N/A dup=7 drop=1 speed= 1.3x    frame=   58 fps= 36 q=35.0 size=N/A time=00:00:01.93 bitrate=N/A dup=9 drop=1 speed=1.21x    [hls @ 0x62754948fc00] Opening 'data/hls/stream2/stream2_segment_043.ts' for writing
[hls @ 0x62754948fc00] Opening 'data/hls/stream2/stream2.m3u8.tmp' for writing
frame=   73 fps= 34 q=41.0 size=N/A time=00:00:02.43 bitrate=N/A dup=12 drop=1 speed=1.14x    frame=   89 fps= 34 q=36.0 size=N/A time=00:00:02.96 bitrate=N/A dup=15 drop=2 speed=1.12x    frame=  105 fps= 33 q=34.0 size=N/A time=00:00:03.50 bitrate=N/A dup=21 drop=4 speed= 1.1x    [hls @ 0x62754948fc00] Opening 'data/hls/stream2/stream2_segment_044.ts' for writing
[hls @ 0x62754948fc00] Opening 'data/hls/stream2/stream2.m3u8.tmp' for writing
frame=  122 fps= 33 q=44.0 size=N/A time=00:00:04.03 bitrate=N/A dup=24 drop=5 speed=1.09x    frame=  136 fps= 32 q=36.0 size=N/A time=00:00:04.53 bitrate=N/A dup=26 drop=5 speed=1.08x    frame=  153 fps= 32 q=42.0 size=N/A time=00:00:05.06 bitrate=N/A dup=31 drop=7 speed=1.07x    frame=  167 fps= 32 q=34.0 size=N/A time=00:00:05.56 bitrate=N/A dup=36 drop=10 speed=1.06x    [hls @ 0x62754948fc00] Opening 'data/hls/stream2/stream2_segment_045.ts' for writing
[hls @ 0x62754948fc00] Opening 'data/hls/stream2/stream2.m3u8.tmp' for writing
frame=  183 fps= 32 q=41.0 size=N/A time=00:00:06.10 bitrate=N/A dup=42 drop=12 speed=1.06x    frame=  199 fps= 32 q=36.0 size=N/A time=00:00:06.63 bitrate=N/A dup=45 drop=13 speed=1.05x    frame=  214 fps= 31 q=38.0 size=N/A time=00:00:07.13 bitrate=N/A dup=48 drop=13 speed=1.05x    frame=  231 fps= 31 q=41.0 size=N/A time=00:00:07.66 bitrate=N/A dup=50 drop=13 speed=1.04x    [hls @ 0x62754948fc00] Opening 'data/hls/stream2/stream2_segment_046.ts' for writing
[hls @ 0x62754948fc00] Opening 'data/hls/stream2/stream2.m3u8.tmp' for writing
frame=  247 fps= 31 q=38.0 size=N/A time=00:00:08.20 bitrate=N/A dup=53 drop=13 speed=1.04x    frame=  260 fps= 31 q=37.0 size=N/A time=00:00:08.66 bitrate=N/A dup=55 drop=13 speed=1.04x    frame=  276 fps= 31 q=37.0 size=N/A time=00:00:09.20 bitrate=N/A dup=60 drop=15 speed=1.04x    frame=  291 fps= 31 q=39.0 size=N/A time=00:00:09.70 bitrate=N/A dup=65 drop=17 speed=1.03x    [hls @ 0x62754948fc00] Opening 'data/hls/stream2/stream2_segment_047.ts' for writing
[hls @ 0x62754948fc00] Opening 'data/hls/stream2/stream2.m3u8.tmp' for writing
frame=  307 fps= 31 q=37.0 size=N/A time=00:00:10.23 bitrate=N/A dup=70 drop=20 speed=1.03x    frame=  324 fps= 31 q=36.0 size=N/A time=00:00:10.76 bitrate=N/A dup=74 drop=21 speed=1.03x    frame=  338 fps= 31 q=40.0 size=N/A time=00:00:11.26 bitrate=N/A dup=77 drop=21 speed=1.03x    frame=  355 fps= 31 q=37.0 size=N/A time=00:00:11.80 bitrate=N/A dup=79 drop=21 speed=1.03x    [hls @ 0x62754948fc00] Opening 'data/hls/stream2/stream2_segment_048.ts' for writing
[hls @ 0x62754948fc00] Opening 'data/hls/stream2/stream2.m3u8.tmp' for writing
frame=  369 fps= 31 q=38.0 size=N/A time=00:00:12.30 bitrate=N/A dup=82 drop=21 speed=1.03x    frame=  385 fps= 31 q=35.0 size=N/A time=00:00:12.83 bitrate=N/A dup=86 drop=22 speed=1.03x    frame=  402 fps= 31 q=40.0 size=N/A time=00:00:13.36 bitrate=N/A dup=89 drop=23 speed=1.03x    frame=  416 fps= 31 q=38.0 size=N/A time=00:00:13.86 bitrate=N/A dup=92 drop=23 speed=1.02x    [hls @ 0x62754948fc00] Opening 'data/hls/stream2/stream2_segment_049.ts' for writing
[hls @ 0x62754948fc00] Opening 'data/hls/stream2/stream2.m3u8.tmp' for writing
frame=  431 fps= 31 q=34.0 size=N/A time=00:00:14.36 bitrate=N/A dup=94 drop=23 speed=1.02x    frame=  447 fps= 31 q=38.0 size=N/A time=00:00:14.90 bitrate=N/A dup=98 drop=24 speed=1.02x    frame=  462 fps= 31 q=40.0 size=N/A time=00:00:15.40 bitrate=N/A dup=102 drop=26 speed=1.02x    frame=  478 fps= 31 q=35.0 size=N/A time=00:00:15.93 bitrate=N/A dup=107 drop=27 speed=1.02x    [hls @ 0x62754948fc00] Opening 'data/hls/stream2/stream2_segment_050.ts' for writing
[hls @ 0x62754948fc00] Opening 'data/hls/stream2/stream2.m3u8.tmp' for writing
frame=  495 fps= 31 q=34.0 size=N/A time=00:00:16.46 bitrate=N/A dup=110 drop=28 speed=1.02x    frame=  509 fps= 31 q=37.0 size=N/A time=00:00:16.96 bitrate=N/A dup=112 drop=28 speed=1.02x    frame=  525 fps= 31 q=38.0 size=N/A time=00:00:17.50 bitrate=N/A dup=115 drop=28 speed=1.02x    frame=  539 fps= 31 q=36.0 size=N/A time=00:00:17.96 bitrate=N/A dup=117 drop=28 speed=1.02x    [hls @ 0x62754948fc00] Opening 'data/hls/stream2/stream2_segment_051.ts' for writing
[hls @ 0x62754948fc00] Opening 'data/hls/stream2/stream2.m3u8.tmp' for writing
frame=  555 fps= 31 q=35.0 size=N/A time=00:00:18.50 bitrate=N/A dup=121 drop=29 speed=1.02x    frame=  572 fps= 31 q=43.0 size=N/A time=00:00:19.03 bitrate=N/A dup=127 drop=32 speed=1.02x    frame=  586 fps= 31 q=36.0 size=N/A time=00:00:19.53 bitrate=N/A dup=132 drop=35 speed=1.02x    [hls @ 0x62754948fc00] Opening 'data/hls/stream2/stream2_segment_052.ts' for writing
[hls @ 0x62754948fc00] Opening 'data/hls/stream2/stream2.m3u8.tmp' for writing
frame=  603 fps= 31 q=42.0 size=N/A time=00:00:20.06 bitrate=N/A dup=136 drop=36 speed=1.02x    frame=  617 fps= 30 q=35.0 size=N/A time=00:00:20.56 bitrate=N/A dup=140 drop=37 speed=1.02x    frame=  633 fps= 30 q=41.0 size=N/A time=00:00:21.10 bitrate=N/A dup=142 drop=37 speed=1.02x    frame=  649 fps= 30 q=36.0 size=N/A time=00:00:21.63 bitrate=N/A dup=147 drop=39 speed=1.02x    [hls @ 0x62754948fc00] Opening 'data/hls/stream2/stream2_segment_053.ts' for writing
[hls @ 0x62754948fc00] Opening 'data/hls/stream2/stream2.m3u8.tmp' for writing
frame=  664 fps= 30 q=40.0 size=N/A time=00:00:22.10 bitrate=N/A dup=150 drop=40 speed=1.01x    frame=  679 fps= 30 q=43.0 size=N/A time=00:00:22.63 bitrate=N/A dup=153 drop=40 speed=1.01x    frame=  695 fps= 30 q=40.0 size=N/A time=00:00:23.13 bitrate=N/A dup=156 drop=40 speed=1.01x    frame=  710 fps= 30 q=37.0 size=N/A time=00:00:23.66 bitrate=N/A dup=158 drop=40 speed=1.01x    [hls @ 0x62754948fc00] Opening 'data/hls/stream2/stream2_segment_054.ts' for writing
[hls @ 0x62754948fc00] Opening 'data/hls/stream2/stream2.m3u8.tmp' for writing
frame=  726 fps= 30 q=37.0 size=N/A time=00:00:24.20 bitrate=N/A dup=161 drop=40 speed=1.01x    frame=  741 fps= 30 q=38.0 size=N/A time=00:00:24.70 bitrate=N/A dup=165 drop=41 speed=1.01x    frame=  757 fps= 30 q=37.0 size=N/A time=00:00:25.23 bitrate=N/A dup=167 drop=41 speed=1.01x    frame=  772 fps= 30 q=34.0 size=N/A time=00:00:25.73 bitrate=N/A dup=172 drop=43 speed=1.01x    [hls @ 0x62754948fc00] Opening 'data/hls/stream2/stream2_segment_055.ts' for writing
[hls @ 0x62754948fc00] Opening 'data/hls/stream2/stream2.m3u8.tmp' for writing
frame=  788 fps= 30 q=42.0 size=N/A time=00:00:26.26 bitrate=N/A dup=176 drop=44 speed=1.01x    frame=  804 fps= 30 q=37.0 size=N/A time=00:00:26.80 bitrate=N/A dup=178 drop=44 speed=1.01x    frame=  820 fps= 30 q=34.0 size=N/A time=00:00:27.33 bitrate=N/A dup=181 drop=44 speed=1.01x    frame=  835 fps= 30 q=33.0 size=N/A time=00:00:27.83 bitrate=N/A dup=184 drop=44 speed=1.01x    [hls @ 0x62754948fc00] Opening 'data/hls/stream2/stream2_segment_056.ts' for writing
[hls @ 0x62754948fc00] Opening 'data/hls/stream2/stream2.m3u8.tmp' for writing
frame=  850 fps= 30 q=38.0 size=N/A time=00:00:28.33 bitrate=N/A dup=188 drop=46 speed=1.01x    frame=  866 fps= 30 q=35.0 size=N/A time=00:00:28.86 bitrate=N/A dup=192 drop=47 speed=1.01x    frame=  882 fps= 30 q=35.0 size=N/A time=00:00:29.40 bitrate=N/A dup=194 drop=47 speed=1.01x    frame=  899 fps= 30 q=36.0 size=N/A time=00:00:29.96 bitrate=N/A dup=198 drop=47 speed=1.01x    [hls @ 0x62754948fc00] Opening 'data/hls/stream2/stream2_segment_057.ts' for writing
[hls @ 0x62754948fc00] Opening 'data/hls/stream2/stream2.m3u8.tmp' for writing
frame=  913 fps= 30 q=35.0 size=N/A time=00:00:30.43 bitrate=N/A dup=202 drop=49 speed=1.01x    frame=  931 fps= 30 q=43.0 size=N/A time=00:00:31.03 bitrate=N/A dup=208 drop=52 speed=1.01x    frame=  947 fps= 30 q=39.0 size=N/A time=00:00:31.53 bitrate=N/A dup=212 drop=54 speed=1.01x    [hls @ 0x62754948fc00] Opening 'data/hls/stream2/stream2_segment_058.ts' for writing
[hls @ 0x62754948fc00] Opening 'data/hls/stream2/stream2.m3u8.tmp' for writing
frame=  962 fps= 30 q=42.0 size=N/A time=00:00:32.06 bitrate=N/A dup=218 drop=57 speed=1.01x    frame=  977 fps= 30 q=36.0 size=N/A time=00:00:32.56 bitrate=N/A dup=222 drop=59 speed=1.01x    frame=  994 fps= 30 q=42.0 size=N/A time=00:00:33.10 bitrate=N/A dup=226 drop=60 speed=1.01x    frame= 1009 fps= 30 q=36.0 size=N/A time=00:00:33.63 bitrate=N/A dup=230 drop=61 speed=1.01x    [hls @ 0x62754948fc00] Opening 'data/hls/stream2/stream2_segment_059.ts' for writing
[hls @ 0x62754948fc00] Opening 'data/hls/stream2/stream2.m3u8.tmp' for writing
frame= 1024 fps= 30 q=37.0 size=N/A time=00:00:34.13 bitrate=N/A dup=233 drop=61 speed=1.01x    frame= 1041 fps= 30 q=42.0 size=N/A time=00:00:34.66 bitrate=N/A dup=235 drop=61 speed=1.01x    frame= 1055 fps= 30 q=40.0 size=N/A time=00:00:35.16 bitrate=N/A dup=238 drop=61 speed=1.01x    frame= 1071 fps= 30 q=37.0 size=N/A time=00:00:35.70 bitrate=N/A dup=240 drop=61 speed=1.01x    [hls @ 0x62754948fc00] Opening 'data/hls/stream2/stream2_segment_060.ts' for writing
[hls @ 0x62754948fc00] Opening 'data/hls/stream2/stream2.m3u8.tmp' for writing
frame= 1086 fps= 30 q=38.0 size=N/A time=00:00:36.20 bitrate=N/A dup=243 drop=61 speed=1.01x    frame= 1102 fps= 30 q=39.0 size=N/A time=00:00:36.73 bitrate=N/A dup=245 drop=61 speed=1.01x    frame= 1118 fps= 30 q=37.0 size=N/A time=00:00:37.26 bitrate=N/A dup=250 drop=63 speed=1.01x    frame= 1135 fps= 30 q=39.0 size=N/A time=00:00:37.80 bitrate=N/A dup=254 drop=64 speed=1.01x    [hls @ 0x62754948fc00] Opening 'data/hls/stream2/stream2_segment_061.ts' for writing
[hls @ 0x62754948fc00] Opening 'data/hls/stream2/stream2.m3u8.tmp' for writing
frame= 1149 fps= 30 q=42.0 size=N/A time=00:00:38.30 bitrate=N/A dup=258 drop=66 speed=1.01x    frame= 1165 fps= 30 q=37.0 size=N/A time=00:00:38.83 bitrate=N/A dup=262 drop=67 speed=1.01x    frame= 1180 fps= 30 q=38.0 size=N/A time=00:00:39.33 bitrate=N/A dup=265 drop=67 speed=1.01x    frame= 1197 fps= 30 q=42.0 size=N/A time=00:00:39.90 bitrate=N/A dup=268 drop=67 speed=1.01x    [hls @ 0x62754948fc00] Opening 'data/hls/stream2/stream2_segment_062.ts' for writing
[hls @ 0x62754948fc00] Opening 'data/hls/stream2/stream2.m3u8.tmp' for writing
frame= 1212 fps= 30 q=38.0 size=N/A time=00:00:40.40 bitrate=N/A dup=272 drop=69 speed=1.01x    frame= 1227 fps= 30 q=36.0 size=N/A time=00:00:40.90 bitrate=N/A dup=277 drop=71 speed=1.01x    frame= 1243 fps= 30 q=35.0 size=N/A time=00:00:41.43 bitrate=N/A dup=280 drop=71 speed=1.01x    frame= 1259 fps= 30 q=41.0 size=N/A time=00:00:41.96 bitrate=N/A dup=282 drop=71 speed=1.01x    [hls @ 0x62754948fc00] Opening 'data/hls/stream2/stream2_segment_063.ts' for writing
[hls @ 0x62754948fc00] Opening 'data/hls/stream2/stream2.m3u8.tmp' for writing
frame= 1274 fps= 30 q=38.0 size=N/A time=00:00:42.46 bitrate=N/A dup=285 drop=71 speed=1.01x    frame= 1291 fps= 30 q=36.0 size=N/A time=00:00:43.00 bitrate=N/A dup=287 drop=71 speed=1.01x    frame= 1307 fps= 30 q=38.0 size=N/A time=00:00:43.56 bitrate=N/A dup=292 drop=72 speed=1.01x    [hls @ 0x62754948fc00] Opening 'data/hls/stream2/stream2_segment_064.ts' for writing
[hls @ 0x62754948fc00] Opening 'data/hls/stream2/stream2.m3u8.tmp' for writing
frame= 1323 fps= 30 q=40.0 size=N/A time=00:00:44.10 bitrate=N/A dup=296 drop=74 speed=1.01x    frame= 1338 fps= 30 q=38.0 size=N/A time=00:00:44.60 bitrate=N/A dup=301 drop=76 speed=1.01x    frame= 1353 fps= 30 q=44.0 size=N/A time=00:00:45.10 bitrate=N/A dup=304 drop=77 speed=1.01x    frame= 1369 fps= 30 q=38.0 size=N/A time=00:00:45.63 bitrate=N/A dup=309 drop=79 speed=1.01x    [hls @ 0x62754948fc00] Opening 'data/hls/stream2/stream2_segment_065.ts' for writing
[hls @ 0x62754948fc00] Opening 'data/hls/stream2/stream2.m3u8.tmp' for writing
frame= 1385 fps= 30 q=39.0 size=N/A time=00:00:46.16 bitrate=N/A dup=311 drop=79 speed=1.01x    frame= 1401 fps= 30 q=42.0 size=N/A time=00:00:46.70 bitrate=N/A dup=316 drop=81 speed=1.01x    frame= 1416 fps= 30 q=39.0 size=N/A time=00:00:47.20 bitrate=N/A dup=320 drop=83 speed=1.01x    frame= 1432 fps= 30 q=36.0 size=N/A time=00:00:47.73 bitrate=N/A dup=326 drop=85 speed=1.01x    [hls @ 0x62754948fc00] Opening 'data/hls/stream2/stream2_segment_066.ts' for writing
[hls @ 0x62754948fc00] Opening 'data/hls/stream2/stream2.m3u8.tmp' for writing
frame= 1448 fps= 30 q=36.0 size=N/A time=00:00:48.26 bitrate=N/A dup=330 drop=87 speed=1.01x    frame= 1463 fps= 30 q=38.0 size=N/A time=00:00:48.76 bitrate=N/A dup=335 drop=89 speed=1.01x    frame= 1479 fps= 30 q=37.0 size=N/A time=00:00:49.30 bitrate=N/A dup=339 drop=91 speed=1.01x    frame= 1495 fps= 30 q=35.0 size=N/A time=00:00:49.83 bitrate=N/A dup=344 drop=93 speed=1.01x    [hls @ 0x62754948fc00] Opening 'data/hls/stream2/stream2_segment_067.ts' for writing
[hls @ 0x62754948fc00] Opening 'data/hls/stream2/stream2.m3u8.tmp' for writing
frame= 1510 fps= 30 q=41.0 size=N/A time=00:00:50.33 bitrate=N/A dup=347 drop=93 speed=1.01x    frame= 1526 fps= 30 q=37.0 size=N/A time=00:00:50.86 bitrate=N/A dup=349 drop=93 speed=1.01x    frame= 1544 fps= 30 q=36.0 size=N/A time=00:00:51.43 bitrate=N/A dup=352 drop=93 speed=1.01x    frame= 1558 fps= 30 q=42.0 size=N/A time=00:00:51.93 bitrate=N/A dup=357 drop=96 speed=1.01x    [hls @ 0x62754948fc00] Opening 'data/hls/stream2/stream2_segment_068.ts' for writing
[hls @ 0x62754948fc00] Opening 'data/hls/stream2/stream2.m3u8.tmp' for writing
frame= 1573 fps= 30 q=37.0 size=N/A time=00:00:52.43 bitrate=N/A dup=362 drop=98 speed=1.01x    frame= 1588 fps= 30 q=36.0 size=N/A time=00:00:52.93 bitrate=N/A dup=367 drop=101 speed=1.01x    frame= 1604 fps= 30 q=37.0 size=N/A time=00:00:53.43 bitrate=N/A dup=371 drop=102 speed=1.01x    frame= 1619 fps= 30 q=40.0 size=N/A time=00:00:53.96 bitrate=N/A dup=375 drop=103 speed=1.01x    [hls @ 0x62754948fc00] Opening 'data/hls/stream2/stream2_segment_069.ts' for writing
[hls @ 0x62754948fc00] Opening 'data/hls/stream2/stream2.m3u8.tmp' for writing
frame= 1635 fps= 30 q=37.0 size=N/A time=00:00:54.46 bitrate=N/A dup=378 drop=104 speed=1.01x    frame= 1650 fps= 30 q=34.0 size=N/A time=00:00:55.00 bitrate=N/A dup=381 drop=104 speed=1.01x    frame= 1666 fps= 30 q=41.0 size=N/A time=00:00:55.53 bitrate=N/A dup=386 drop=106 speed=1.01x    [hls @ 0x62754948fc00] Opening 'data/hls/stream2/stream2_segment_070.ts' for writing
[hls @ 0x62754948fc00] Opening 'data/hls/stream2/stream2.m3u8.tmp' for writing
frame= 1681 fps= 30 q=44.0 size=N/A time=00:00:56.03 bitrate=N/A dup=390 drop=108 speed=1.01x    frame= 1697 fps= 30 q=34.0 size=N/A time=00:00:56.56 bitrate=N/A dup=396 drop=111 speed=1.01x    frame= 1711 fps= 30 q=43.0 size=N/A time=00:00:57.03 bitrate=N/A dup=399 drop=112 speed=1.01x    frame= 1727 fps= 30 q=40.0 size=N/A time=00:00:57.56 bitrate=N/A dup=402 drop=112 speed=1.01x    [hls @ 0x62754948fc00] Opening 'data/hls/stream2/stream2_segment_071.ts' for writing
[hls @ 0x62754948fc00] Opening 'data/hls/stream2/stream2.m3u8.tmp' for writing
frame= 1742 fps= 30 q=41.0 size=N/A time=00:00:58.06 bitrate=N/A dup=405 drop=112 speed=1.01x    frame= 1758 fps= 30 q=36.0 size=N/A time=00:00:58.60 bitrate=N/A dup=407 drop=112 speed=1.01x    frame= 1775 fps= 30 q=43.0 size=N/A time=00:00:59.13 bitrate=N/A dup=410 drop=112 speed=1.01x    frame= 1791 fps= 30 q=36.0 size=N/A time=00:00:59.70 bitrate=N/A dup=416 drop=115 speed=1.01x    [hls @ 0x62754948fc00] Opening 'data/hls/stream2/stream2_segment_072.ts' for writing
[hls @ 0x62754948fc00] Opening 'data/hls/stream2/stream2.m3u8.tmp' for writing
frame= 1806 fps= 30 q=37.0 size=N/A time=00:01:00.20 bitrate=N/A dup=420 drop=117 speed=1.01x    frame= 1820 fps= 30 q=36.0 size=N/A time=00:01:00.66 bitrate=N/A dup=424 drop=119 speed=   1x    frame= 1836 fps= 30 q=38.0 size=N/A time=00:01:01.20 bitrate=N/A dup=429 drop=120 speed=1.01x    frame= 1852 fps= 30 q=37.0 size=N/A time=00:01:01.73 bitrate=N/A dup=431 drop=120 speed=1.01x    [hls @ 0x62754948fc00] Opening 'data/hls/stream2/stream2_segment_073.ts' for writing
[hls @ 0x62754948fc00] Opening 'data/hls/stream2/stream2.m3u8.tmp' for writing
frame= 1867 fps= 30 q=36.0 size=N/A time=00:01:02.23 bitrate=N/A dup=434 drop=120 speed=1.01x    frame= 1883 fps= 30 q=40.0 size=N/A time=00:01:02.76 bitrate=N/A dup=436 drop=120 speed=1.01x    frame= 1899 fps= 30 q=37.0 size=N/A time=00:01:03.30 bitrate=N/A dup=441 drop=122 speed=1.01x    frame= 1914 fps= 30 q=35.0 size=N/A time=00:01:03.80 bitrate=N/A dup=446 drop=125 speed=1.01x    [hls @ 0x62754948fc00] Opening 'data/hls/stream2/stream2_segment_074.ts' for writing
[hls @ 0x62754948fc00] Opening 'data/hls/stream2/stream2.m3u8.tmp' for writing
frame= 1930 fps= 30 q=33.0 size=N/A time=00:01:04.33 bitrate=N/A dup=452 drop=127 speed=   1x    frame= 1946 fps= 30 q=36.0 size=N/A time=00:01:04.86 bitrate=N/A dup=456 drop=129 speed=   1x    frame= 1961 fps= 30 q=34.0 size=N/A time=00:01:05.36 bitrate=N/A dup=460 drop=130 speed=   1x    frame= 1977 fps= 30 q=33.0 size=N/A time=00:01:05.90 bitrate=N/A dup=464 drop=131 speed=   1x    [hls @ 0x62754948fc00] Opening 'data/hls/stream2/stream2_segment_075.ts' for writing
[hls @ 0x62754948fc00] Opening 'data/hls/stream2/stream2.m3u8.tmp' for writing
frame= 1993 fps= 30 q=36.0 size=N/A time=00:01:06.43 bitrate=N/A dup=468 drop=133 speed=1.01x    frame= 2009 fps= 30 q=34.0 size=N/A time=00:01:06.93 bitrate=N/A dup=471 drop=133 speed=   1x    frame= 2024 fps= 30 q=35.0 size=N/A time=00:01:07.46 bitrate=N/A dup=473 drop=133 speed=   1x    frame= 2039 fps= 30 q=41.0 size=N/A time=00:01:07.96 bitrate=N/A dup=476 drop=133 speed=   1x    [hls @ 0x62754948fc00] Opening 'data/hls/stream2/stream2_segment_076.ts' for writing
[hls @ 0x62754948fc00] Opening 'data/hls/stream2/stream2.m3u8.tmp' for writing
frame= 2055 fps= 30 q=36.0 size=N/A time=00:01:08.50 bitrate=N/A dup=478 drop=133 speed=   1x    frame= 2071 fps= 30 q=43.0 size=N/A time=00:01:09.03 bitrate=N/A dup=482 drop=134 speed=   1x    frame= 2088 fps= 30 q=41.0 size=N/A time=00:01:09.56 bitrate=N/A dup=485 drop=134 speed=1.01x    [hls @ 0x62754948fc00] Opening 'data/hls/stream2/stream2_segment_077.ts' for writing
[hls @ 0x62754948fc00] Opening 'data/hls/stream2/stream2.m3u8.tmp' for writing
frame= 2102 fps= 30 q=42.0 size=N/A time=00:01:10.06 bitrate=N/A dup=488 drop=135 speed=   1x    frame= 2118 fps= 30 q=34.0 size=N/A time=00:01:10.60 bitrate=N/A dup=491 drop=135 speed=   1x    frame= 2133 fps= 30 q=39.0 size=N/A time=00:01:11.10 bitrate=N/A dup=496 drop=138 speed=   1x    frame= 2149 fps= 30 q=38.0 size=N/A time=00:01:11.63 bitrate=N/A dup=502 drop=140 speed=   1x    [hls @ 0x62754948fc00] Opening 'data/hls/stream2/stream2_segment_078.ts' for writing
[hls @ 0x62754948fc00] Opening 'data/hls/stream2/stream2.m3u8.tmp' for writing
frame= 2165 fps= 30 q=37.0 size=N/A time=00:01:12.16 bitrate=N/A dup=507 drop=143 speed=   1x    frame= 2180 fps= 30 q=33.0 size=N/A time=00:01:12.66 bitrate=N/A dup=510 drop=143 speed=   1x    frame= 2196 fps= 30 q=40.0 size=N/A time=00:01:13.20 bitrate=N/A dup=512 drop=143 speed=   1x    frame= 2213 fps= 30 q=36.0 size=N/A time=00:01:13.73 bitrate=N/A dup=515 drop=143 speed=   1x    [hls @ 0x62754948fc00] Opening 'data/hls/stream2/stream2_segment_079.ts' for writing
[hls @ 0x62754948fc00] Opening 'data/hls/stream2/stream2.m3u8.tmp' for writing
frame= 2227 fps= 30 q=34.0 size=N/A time=00:01:14.23 bitrate=N/A dup=518 drop=143 speed=   1x    frame= 2243 fps= 30 q=33.0 size=N/A time=00:01:14.76 bitrate=N/A dup=521 drop=143 speed=   1x    frame= 2259 fps= 30 q=38.0 size=N/A time=00:01:15.26 bitrate=N/A dup=527 drop=148 speed=   1x    frame= 2274 fps= 30 q=34.0 size=N/A time=00:01:15.80 bitrate=N/A dup=534 drop=151 speed=   1x    [hls @ 0x62754948fc00] Opening 'data/hls/stream2/stream2_segment_080.ts' for writing
[hls @ 0x62754948fc00] Opening 'data/hls/stream2/stream2.m3u8.tmp' for writing
frame= 2290 fps= 30 q=36.0 size=N/A time=00:01:16.33 bitrate=N/A dup=538 drop=153 speed=   1x    frame= 2305 fps= 30 q=40.0 size=N/A time=00:01:16.83 bitrate=N/A dup=542 drop=154 speed=   1x    frame= 2321 fps= 30 q=37.0 size=N/A time=00:01:17.36 bitrate=N/A dup=544 drop=154 speed=   1x    frame= 2337 fps= 30 q=36.0 size=N/A time=00:01:17.90 bitrate=N/A dup=547 drop=154 speed=   1x    [hls @ 0x62754948fc00] Opening 'data/hls/stream2/stream2_segment_081.ts' for writing
[hls @ 0x62754948fc00] Opening 'data/hls/stream2/stream2.m3u8.tmp' for writing
frame= 2352 fps= 30 q=42.0 size=N/A time=00:01:18.40 bitrate=N/A dup=550 drop=154 speed=   1x    frame= 2368 fps= 30 q=37.0 size=N/A time=00:01:18.93 bitrate=N/A dup=553 drop=155 speed=   1x    frame= 2383 fps= 30 q=35.0 size=N/A time=00:01:19.43 bitrate=N/A dup=556 drop=155 speed=   1x    [hls @ 0x62754948fc00] Opening 'data/hls/stream2/stream2_segment_082.ts' for writing
frame= 2400 fps= 30 q=34.0 size=N/A time=00:01:20.00 bitrate=N/A dup=559 drop=155 speed=   1x    [hls @ 0x62754948fc00] Opening 'data/hls/stream2/stream2.m3u8.tmp' for writing
frame= 2415 fps= 30 q=37.0 size=N/A time=00:01:20.50 bitrate=N/A dup=563 drop=157 speed=   1x    frame= 2431 fps= 30 q=43.0 size=N/A time=00:01:21.03 bitrate=N/A dup=567 drop=158 speed=   1x    frame= 2446 fps= 30 q=33.0 size=N/A time=00:01:21.53 bitrate=N/A dup=570 drop=158 speed=   1x    [hls @ 0x62754948fc00] Opening 'data/hls/stream2/stream2_segment_083.ts' for writing
[hls @ 0x62754948fc00] Opening 'data/hls/stream2/stream2.m3u8.tmp' for writing
frame= 2463 fps= 30 q=41.0 size=N/A time=00:01:22.06 bitrate=N/A dup=572 drop=158 speed=   1x    frame= 2477 fps= 30 q=36.0 size=N/A time=00:01:22.56 bitrate=N/A dup=575 drop=158 speed=   1x    frame= 2493 fps= 30 q=40.0 size=N/A time=00:01:23.10 bitrate=N/A dup=577 drop=158 speed=   1x    frame= 2509 fps= 30 q=40.0 size=N/A time=00:01:23.63 bitrate=N/A dup=580 drop=158 speed=   1x    [hls @ 0x62754948fc00] Opening 'data/hls/stream2/stream2_segment_084.ts' for writing
[hls @ 0x62754948fc00] Opening 'data/hls/stream2/stream2.m3u8.tmp' for writing
frame= 2525 fps= 30 q=37.0 size=N/A time=00:01:24.16 bitrate=N/A dup=584 drop=159 speed=   1x    frame= 2540 fps= 30 q=35.0 size=N/A time=00:01:24.66 bitrate=N/A dup=589 drop=162 speed=   1x    frame= 2557 fps= 30 q=42.0 size=N/A time=00:01:25.20 bitrate=N/A dup=594 drop=164 speed=   1x    frame= 2571 fps= 30 q=37.0 size=N/A time=00:01:25.70 bitrate=N/A dup=597 drop=164 speed=   1x    [hls @ 0x62754948fc00] Opening 'data/hls/stream2/stream2_segment_085.ts' for writing
[hls @ 0x62754948fc00] Opening 'data/hls/stream2/stream2.m3u8.tmp' for writing
frame= 2587 fps= 30 q=36.0 size=N/A time=00:01:26.23 bitrate=N/A dup=600 drop=165 speed=   1x    frame= 2603 fps= 30 q=35.0 size=N/A time=00:01:26.76 bitrate=N/A dup=605 drop=167 speed=   1x    frame= 2618 fps= 30 q=38.0 size=N/A time=00:01:27.26 bitrate=N/A dup=609 drop=168 speed=   1x    frame= 2632 fps= 30 q=36.0 size=N/A time=00:01:27.73 bitrate=N/A dup=614 drop=171 speed=   1x    [hls @ 0x62754948fc00] Opening 'data/hls/stream2/stream2_segment_086.ts' for writing
[hls @ 0x62754948fc00] Opening 'data/hls/stream2/stream2.m3u8.tmp' for writing
frame= 2648 fps= 30 q=35.0 size=N/A time=00:01:28.26 bitrate=N/A dup=618 drop=172 speed=   1x    frame= 2664 fps= 30 q=42.0 size=N/A time=00:01:28.80 bitrate=N/A dup=620 drop=172 speed=   1x    frame= 2681 fps= 30 q=37.0 size=N/A time=00:01:29.33 bitrate=N/A dup=623 drop=172 speed=   1x    frame= 2695 fps= 30 q=35.0 size=N/A time=00:01:29.83 bitrate=N/A dup=627 drop=173 speed=   1x    [hls @ 0x62754948fc00] Opening 'data/hls/stream2/stream2_segment_087.ts' for writing
[hls @ 0x62754948fc00] Opening 'data/hls/stream2/stream2.m3u8.tmp' for writing
frame= 2711 fps= 30 q=36.0 size=N/A time=00:01:30.36 bitrate=N/A dup=630 drop=174 speed=   1x    frame= 2726 fps= 30 q=39.0 size=N/A time=00:01:30.86 bitrate=N/A dup=633 drop=174 speed=   1x    frame= 2742 fps= 30 q=37.0 size=N/A time=00:01:31.40 bitrate=N/A dup=637 drop=176 speed=   1x    frame= 2758 fps= 30 q=37.0 size=N/A time=00:01:31.93 bitrate=N/A dup=641 drop=177 speed=   1x    [hls @ 0x62754948fc00] Opening 'data/hls/stream2/stream2_segment_088.ts' for writing
[hls @ 0x62754948fc00] Opening 'data/hls/stream2/stream2.m3u8.tmp' for writing
frame= 2773 fps= 30 q=42.0 size=N/A time=00:01:32.43 bitrate=N/A dup=644 drop=177 speed=   1x    frame= 2789 fps= 30 q=36.0 size=N/A time=00:01:32.96 bitrate=N/A dup=647 drop=177 speed=   1x    frame= 2806 fps= 30 q=37.0 size=N/A time=00:01:33.50 bitrate=N/A dup=651 drop=179 speed=   1x    frame= 2820 fps= 30 q=35.0 size=N/A time=00:01:34.00 bitrate=N/A dup=654 drop=179 speed=   1x    [hls @ 0x62754948fc00] Opening 'data/hls/stream2/stream2_segment_089.ts' for writing
[hls @ 0x62754948fc00] Opening 'data/hls/stream2/stream2.m3u8.tmp' for writing
frame= 2836 fps= 30 q=38.0 size=N/A time=00:01:34.53 bitrate=N/A dup=657 drop=180 speed=   1x    frame= 2852 fps= 30 q=42.0 size=N/A time=00:01:35.06 bitrate=N/A dup=661 drop=181 speed=   1x    frame= 2866 fps= 30 q=37.0 size=N/A time=00:01:35.53 bitrate=N/A dup=663 drop=181 speed=   1x    [hls @ 0x62754948fc00] Opening 'data/hls/stream2/stream2_segment_090.ts' for writing
[hls @ 0x62754948fc00] Opening 'data/hls/stream2/stream2.m3u8.tmp' for writing
frame= 2882 fps= 30 q=43.0 size=N/A time=00:01:36.06 bitrate=N/A dup=666 drop=181 speed=   1x    frame= 2897 fps= 30 q=37.0 size=N/A time=00:01:36.56 bitrate=N/A dup=669 drop=181 speed=   1x    frame= 2913 fps= 30 q=40.0 size=N/A time=00:01:37.10 bitrate=N/A dup=671 drop=181 speed=   1x    frame= 2930 fps= 30 q=43.0 size=N/A time=00:01:37.63 bitrate=N/A dup=675 drop=182 speed=   1x    [hls @ 0x62754948fc00] Opening 'data/hls/stream2/stream2_segment_091.ts' for writing
[hls @ 0x62754948fc00] Opening 'data/hls/stream2/stream2.m3u8.tmp' for writing
frame= 2944 fps= 30 q=41.0 size=N/A time=00:01:38.13 bitrate=N/A dup=678 drop=182 speed=   1x    frame= 2960 fps= 30 q=36.0 size=N/A time=00:01:38.66 bitrate=N/A dup=680 drop=182 speed=   1x    frame= 2975 fps= 30 q=38.0 size=N/A time=00:01:39.16 bitrate=N/A dup=683 drop=183 speed=   1x    frame= 2991 fps= 30 q=39.0 size=N/A time=00:01:39.70 bitrate=N/A dup=688 drop=184 speed=   1x    [hls @ 0x62754948fc00] Opening 'data/hls/stream2/stream2_segment_092.ts' for writing
[hls @ 0x62754948fc00] Opening 'data/hls/stream2/stream2.m3u8.tmp' for writing
frame= 3007 fps= 30 q=37.0 size=N/A time=00:01:40.23 bitrate=N/A dup=690 drop=184 speed=   1x    frame= 3022 fps= 30 q=36.0 size=N/A time=00:01:40.73 bitrate=N/A dup=693 drop=184 speed=   1x    frame= 3041 fps= 30 q=39.0 size=N/A time=00:01:41.33 bitrate=N/A dup=697 drop=185 speed=   1x    frame= 3056 fps= 30 q=37.0 size=N/A time=00:01:41.83 bitrate=N/A dup=701 drop=187 speed=   1x    [hls @ 0x62754948fc00] Opening 'data/hls/stream2/stream2_segment_093.ts' for writing
[hls @ 0x62754948fc00] Opening 'data/hls/stream2/stream2.m3u8.tmp' for writing
frame= 3072 fps= 30 q=36.0 size=N/A time=00:01:42.36 bitrate=N/A dup=707 drop=190 speed=   1x    frame= 3088 fps= 30 q=39.0 size=N/A time=00:01:42.90 bitrate=N/A dup=710 drop=190 speed=   1x    frame= 3102 fps= 30 q=38.0 size=N/A time=00:01:43.40 bitrate=N/A dup=713 drop=191 speed=   1x    frame= 3118 fps= 30 q=35.0 size=N/A time=00:01:43.93 bitrate=N/A dup=716 drop=191 speed=   1x    [hls @ 0x62754948fc00] Opening 'data/hls/stream2/stream2_segment_094.ts' for writing
[hls @ 0x62754948fc00] Opening 'data/hls/stream2/stream2.m3u8.tmp' for writing
frame= 3133 fps= 30 q=34.0 size=N/A time=00:01:44.43 bitrate=N/A dup=719 drop=191 speed=   1x    frame= 3149 fps= 30 q=38.0 size=N/A time=00:01:44.96 bitrate=N/A dup=721 drop=191 speed=   1x    frame= 3164 fps= 30 q=35.0 size=N/A time=00:01:45.46 bitrate=N/A dup=724 drop=191 speed=   1x    frame= 3180 fps= 30 q=34.0 size=N/A time=00:01:46.00 bitrate=N/A dup=726 drop=191 speed=   1x    [hls @ 0x62754948fc00] Opening 'data/hls/stream2/stream2_segment_095.ts' for writing
[hls @ 0x62754948fc00] Opening 'data/hls/stream2/stream2.m3u8.tmp' for writing
frame= 3197 fps= 30 q=39.0 size=N/A time=00:01:46.53 bitrate=N/A dup=729 drop=191 speed=   1x    frame= 3210 fps= 30 q=35.0 size=N/A time=00:01:47.00 bitrate=N/A dup=731 drop=191 speed=   1x    frame= 3226 fps= 30 q=37.0 size=N/A time=00:01:47.53 bitrate=N/A dup=734 drop=191 speed=   1x    [hls @ 0x62754948fc00] Opening 'data/hls/stream2/stream2_segment_096.ts' for writing
[hls @ 0x62754948fc00] Opening 'data/hls/stream2/stream2.m3u8.tmp' for writing
frame= 3242 fps= 30 q=44.0 size=N/A time=00:01:48.06 bitrate=N/A dup=737 drop=191 speed=   1x    frame= 3257 fps= 30 q=39.0 size=N/A time=00:01:48.56 bitrate=N/A dup=739 drop=191 speed=   1x    frame= 3273 fps= 30 q=40.0 size=N/A time=00:01:49.10 bitrate=N/A dup=742 drop=191 speed=   1x    frame= 3288 fps= 30 q=34.0 size=N/A time=00:01:49.60 bitrate=N/A dup=747 drop=193 speed=   1x    [hls @ 0x62754948fc00] Opening 'data/hls/stream2/stream2_segment_097.ts' for writing
[hls @ 0x62754948fc00] Opening 'data/hls/stream2/stream2.m3u8.tmp' for writing
frame= 3304 fps= 30 q=40.0 size=N/A time=00:01:50.13 bitrate=N/A dup=749 drop=193 speed=   1x    frame= 3319 fps= 30 q=36.0 size=N/A time=00:01:50.63 bitrate=N/A dup=753 drop=194 speed=   1x    frame= 3335 fps= 30 q=36.0 size=N/A time=00:01:51.16 bitrate=N/A dup=757 drop=195 speed=   1x    frame= 3351 fps= 30 q=41.0 size=N/A time=00:01:51.70 bitrate=N/A dup=760 drop=196 speed=   1x    [hls @ 0x62754948fc00] Opening 'data/hls/stream2/stream2_segment_098.ts' for writing
[hls @ 0x62754948fc00] Opening 'data/hls/stream2/stream2.m3u8.tmp' for writing
frame= 3367 fps= 30 q=37.0 size=N/A time=00:01:52.23 bitrate=N/A dup=764 drop=197 speed=   1x    frame= 3382 fps= 30 q=39.0 size=N/A time=00:01:52.73 bitrate=N/A dup=767 drop=198 speed=   1x    frame= 3398 fps= 30 q=42.0 size=N/A time=00:01:53.26 bitrate=N/A dup=772 drop=200 speed=   1x    frame= 3415 fps= 30 q=36.0 size=N/A time=00:01:53.83 bitrate=N/A dup=776 drop=201 speed=   1x    [hls @ 0x62754948fc00] Opening 'data/hls/stream2/stream2_segment_099.ts' for writing
[hls @ 0x62754948fc00] Opening 'data/hls/stream2/stream2.m3u8.tmp' for writing
frame= 3430 fps= 30 q=35.0 size=N/A time=00:01:54.33 bitrate=N/A dup=782 drop=205 speed=   1x    frame= 3446 fps= 30 q=33.0 size=N/A time=00:01:54.86 bitrate=N/A dup=788 drop=207 speed=   1x    frame= 3463 fps= 30 q=36.0 size=N/A time=00:01:55.40 bitrate=N/A dup=790 drop=207 speed=   1x    frame= 3477 fps= 30 q=34.0 size=N/A time=00:01:55.90 bitrate=N/A dup=793 drop=207 speed=   1x    [hls @ 0x62754948fc00] Opening 'data/hls/stream2/stream2_segment_100.ts' for writing
[hls @ 0x62754948fc00] Opening 'data/hls/stream2/stream2.m3u8.tmp' for writing
frame= 3493 fps= 30 q=35.0 size=N/A time=00:01:56.43 bitrate=N/A dup=795 drop=207 speed=   1x    frame= 3510 fps= 30 q=37.0 size=N/A time=00:01:56.96 bitrate=N/A dup=799 drop=208 speed=   1x    frame= 3524 fps= 30 q=35.0 size=N/A time=00:01:57.46 bitrate=N/A dup=801 drop=208 speed=   1x    frame= 3540 fps= 30 q=33.0 size=N/A time=00:01:58.00 bitrate=N/A dup=804 drop=208 speed=   1x    [hls @ 0x62754948fc00] Opening 'data/hls/stream2/stream2_segment_101.ts' for writing
[hls @ 0x62754948fc00] Opening 'data/hls/stream2/stream2.m3u8.tmp' for writing
frame= 3555 fps= 30 q=42.0 size=N/A time=00:01:58.50 bitrate=N/A dup=809 drop=211 speed=   1x    frame= 3571 fps= 30 q=44.0 size=N/A time=00:01:59.03 bitrate=N/A dup=814 drop=212 speed=   1x    frame= 3587 fps= 30 q=35.0 size=N/A time=00:01:59.56 bitrate=N/A dup=816 drop=212 speed=   1x    [hls @ 0x62754948fc00] Opening 'data/hls/stream2/stream2_segment_102.ts' for writing
[hls @ 0x62754948fc00] Opening 'data/hls/stream2/stream2.m3u8.tmp' for writing
frame= 3602 fps= 30 q=42.0 size=N/A time=00:02:00.06 bitrate=N/A dup=819 drop=212 speed=   1x    frame= 3618 fps= 30 q=38.0 size=N/A time=00:02:00.60 bitrate=N/A dup=821 drop=212 speed=   1x    frame= 3634 fps= 30 q=38.0 size=N/A time=00:02:01.13 bitrate=N/A dup=824 drop=212 speed=   1x    frame= 3649 fps= 30 q=35.0 size=N/A time=00:02:01.63 bitrate=N/A dup=827 drop=212 speed=   1x    [hls @ 0x62754948fc00] Opening 'data/hls/stream2/stream2_segment_103.ts' for writing
[hls @ 0x62754948fc00] Opening 'data/hls/stream2/stream2.m3u8.tmp' for writing
frame= 3665 fps= 30 q=39.0 size=N/A time=00:02:02.16 bitrate=N/A dup=831 drop=214 speed=   1x    frame= 3682 fps= 30 q=36.0 size=N/A time=00:02:02.70 bitrate=N/A dup=836 drop=216 speed=   1x    frame= 3696 fps= 30 q=35.0 size=N/A time=00:02:03.20 bitrate=N/A dup=839 drop=216 speed=   1x    frame= 3713 fps= 30 q=40.0 size=N/A time=00:02:03.73 bitrate=N/A dup=841 drop=216 speed=   1x    [hls @ 0x62754948fc00] Opening 'data/hls/stream2/stream2_segment_104.ts' for writing
[hls @ 0x62754948fc00] Opening 'data/hls/stream2/stream2.m3u8.tmp' for writing
frame= 3727 fps= 30 q=37.0 size=N/A time=00:02:04.23 bitrate=N/A dup=844 drop=216 speed=   1x    frame= 3743 fps= 30 q=36.0 size=N/A time=00:02:04.76 bitrate=N/A dup=849 drop=219 speed=   1x    frame= 3759 fps= 30 q=42.0 size=N/A time=00:02:05.30 bitrate=N/A dup=853 drop=220 speed=   1x    frame= 3774 fps= 30 q=37.0 size=N/A time=00:02:05.80 bitrate=N/A dup=856 drop=220 speed=   1x    [hls @ 0x62754948fc00] Opening 'data/hls/stream2/stream2_segment_105.ts' for writing
[hls @ 0x62754948fc00] Opening 'data/hls/stream2/stream2.m3u8.tmp' for writing
frame= 3790 fps= 30 q=35.0 size=N/A time=00:02:06.33 bitrate=N/A dup=860 drop=221 speed=   1x    frame= 3806 fps= 30 q=37.0 size=N/A time=00:02:06.86 bitrate=N/A dup=864 drop=223 speed=   1x    frame= 3822 fps= 30 q=39.0 size=N/A time=00:02:07.40 bitrate=N/A dup=869 drop=225 speed=   1x    frame= 3838 fps= 30 q=35.0 size=N/A time=00:02:07.93 bitrate=N/A dup=873 drop=226 speed=   1x    [hls @ 0x62754948fc00] Opening 'data/hls/stream2/stream2_segment_106.ts' for writing
[hls @ 0x62754948fc00] Opening 'data/hls/stream2/stream2.m3u8.tmp' for writing
frame= 3854 fps= 30 q=36.0 size=N/A time=00:02:08.46 bitrate=N/A dup=876 drop=227 speed=   1x    frame= 3871 fps= 30 q=34.0 size=N/A time=00:02:09.00 bitrate=N/A dup=883 drop=231 speed=   1x    frame= 3885 fps= 30 q=36.0 size=N/A time=00:02:09.50 bitrate=N/A dup=885 drop=231 speed=   1x    frame= 3900 fps= 30 q=34.0 size=N/A time=00:02:10.00 bitrate=N/A dup=890 drop=233 speed=   1x    [hls @ 0x62754948fc00] Opening 'data/hls/stream2/stream2_segment_107.ts' for writing
[hls @ 0x62754948fc00] Opening 'data/hls/stream2/stream2.m3u8.tmp' for writing
frame= 3916 fps= 30 q=42.0 size=N/A time=00:02:10.53 bitrate=N/A dup=894 drop=234 speed=   1x    frame= 3933 fps= 30 q=42.0 size=N/A time=00:02:11.06 bitrate=N/A dup=896 drop=234 speed=   1x    frame= 3948 fps= 30 q=35.0 size=N/A time=00:02:11.60 bitrate=N/A dup=899 drop=234 speed=   1x    [hls @ 0x62754948fc00] Opening 'data/hls/stream2/stream2_segment_108.ts' for writing
[hls @ 0x62754948fc00] Opening 'data/hls/stream2/stream2.m3u8.tmp' for writing
frame= 3965 fps= 30 q=42.0 size=N/A time=00:02:12.13 bitrate=N/A dup=903 drop=235 speed=   1x    frame= 3979 fps= 30 q=37.0 size=N/A time=00:02:12.63 bitrate=N/A dup=907 drop=237 speed=   1x    frame= 3995 fps= 30 q=37.0 size=N/A time=00:02:13.16 bitrate=N/A dup=912 drop=239 speed=   1x    frame= 4009 fps= 30 q=35.0 size=N/A time=00:02:13.63 bitrate=N/A dup=915 drop=240 speed=   1x    [hls @ 0x62754948fc00] Opening 'data/hls/stream2/stream2_segment_109.ts' for writing
[hls @ 0x62754948fc00] Opening 'data/hls/stream2/stream2.m3u8.tmp' for writing
frame= 4025 fps= 30 q=41.0 size=N/A time=00:02:14.16 bitrate=N/A dup=919 drop=241 speed=   1x    frame= 4040 fps= 30 q=36.0 size=N/A time=00:02:14.66 bitrate=N/A dup=922 drop=241 speed=   1x    frame= 4056 fps= 30 q=37.0 size=N/A time=00:02:15.20 bitrate=N/A dup=924 drop=241 speed=   1x    frame= 4072 fps= 30 q=42.0 size=N/A time=00:02:15.73 bitrate=N/A dup=928 drop=242 speed=   1x    [hls @ 0x62754948fc00] Opening 'data/hls/stream2/stream2_segment_110.ts' for writing
[hls @ 0x62754948fc00] Opening 'data/hls/stream2/stream2.m3u8.tmp' for writing
frame= 4090 fps= 30 q=36.0 size=N/A time=00:02:16.30 bitrate=N/A dup=933 drop=244 speed=   1x    frame= 4105 fps= 30 q=33.0 size=N/A time=00:02:16.83 bitrate=N/A dup=939 drop=247 speed=   1x    frame= 4121 fps= 30 q=40.0 size=N/A time=00:02:17.36 bitrate=N/A dup=942 drop=248 speed=   1x    frame= 4137 fps= 30 q=35.0 size=N/A time=00:02:17.86 bitrate=N/A dup=945 drop=249 speed=   1x    [hls @ 0x62754948fc00] Opening 'data/hls/stream2/stream2_segment_111.ts' for writing
[hls @ 0x62754948fc00] Opening 'data/hls/stream2/stream2.m3u8.tmp' for writing
frame= 4152 fps= 30 q=34.0 size=N/A time=00:02:18.40 bitrate=N/A dup=949 drop=249 speed=   1x    frame= 4168 fps= 30 q=42.0 size=N/A time=00:02:18.93 bitrate=N/A dup=951 drop=249 speed=   1x    frame= 4183 fps= 30 q=37.0 size=N/A time=00:02:19.43 bitrate=N/A dup=954 drop=249 speed=   1x    frame= 4200 fps= 30 q=38.0 size=N/A time=00:02:19.96 bitrate=N/A dup=957 drop=249 speed=   1x    [hls @ 0x62754948fc00] Opening 'data/hls/stream2/stream2_segment_112.ts' for writing
[hls @ 0x62754948fc00] Opening 'data/hls/stream2/stream2.m3u8.tmp' for writing
frame= 4216 fps= 30 q=35.0 size=N/A time=00:02:20.50 bitrate=N/A dup=959 drop=249 speed=   1x    frame= 4230 fps= 30 q=34.0 size=N/A time=00:02:21.00 bitrate=N/A dup=962 drop=249 speed=   1x    frame= 4245 fps= 30 q=37.0 size=N/A time=00:02:21.50 bitrate=N/A dup=964 drop=249 speed=   1x    [hls @ 0x62754948fc00] Opening 'data/hls/stream2/stream2_segment_113.ts' for writing
[hls @ 0x62754948fc00] Opening 'data/hls/stream2/stream2.m3u8.tmp' for writing
frame= 4261 fps= 30 q=43.0 size=N/A time=00:02:22.03 bitrate=N/A dup=968 drop=250 speed=   1x    frame= 4277 fps= 30 q=42.0 size=N/A time=00:02:22.56 bitrate=N/A dup=973 drop=252 speed=   1x    frame= 4293 fps= 30 q=42.0 size=N/A time=00:02:23.06 bitrate=N/A dup=976 drop=253 speed=   1x    frame= 4309 fps= 30 q=35.0 size=N/A time=00:02:23.60 bitrate=N/A dup=981 drop=255 speed=   1x    [hls @ 0x62754948fc00] Opening 'data/hls/stream2/stream2_segment_114.ts' for writing
[hls @ 0x62754948fc00] Opening 'data/hls/stream2/stream2.m3u8.tmp' for writing
frame= 4323 fps= 30 q=40.0 size=N/A time=00:02:24.10 bitrate=N/A dup=984 drop=256 speed=   1x    frame= 4340 fps= 30 q=39.0 size=N/A time=00:02:24.63 bitrate=N/A dup=987 drop=256 speed=   1x    frame= 4354 fps= 30 q=38.0 size=N/A time=00:02:25.13 bitrate=N/A dup=990 drop=256 speed=   1x    frame= 4371 fps= 30 q=33.0 size=N/A time=00:02:25.66 bitrate=N/A dup=993 drop=256 speed=   1x    [hls @ 0x62754948fc00] Opening 'data/hls/stream2/stream2_segment_115.ts' for writing
[hls @ 0x62754948fc00] Opening 'data/hls/stream2/stream2.m3u8.tmp' for writing
frame= 4387 fps= 30 q=40.0 size=N/A time=00:02:26.20 bitrate=N/A dup=996 drop=257 speed=   1x    [vost#0:0/libx264 @ 0x627549492580] More than 1000 frames duplicated
frame= 4403 fps= 30 q=35.0 size=N/A time=00:02:26.73 bitrate=N/A dup=1002 drop=260 speed=   1x    frame= 4417 fps= 30 q=35.0 size=N/A time=00:02:27.23 bitrate=N/A dup=1005 drop=261 speed=   1x    frame= 4433 fps= 30 q=42.0 size=N/A time=00:02:27.76 bitrate=N/A dup=1010 drop=263 speed=   1x    [hls @ 0x62754948fc00] Opening 'data/hls/stream2/stream2_segment_116.ts' for writing
[hls @ 0x62754948fc00] Opening 'data/hls/stream2/stream2.m3u8.tmp' for writing
frame= 4448 fps= 30 q=38.0 size=N/A time=00:02:28.26 bitrate=N/A dup=1012 drop=263 speed=   1x    frame= 4464 fps= 30 q=35.0 size=N/A time=00:02:28.80 bitrate=N/A dup=1015 drop=263 speed=   1x    frame= 4479 fps= 30 q=34.0 size=N/A time=00:02:29.30 bitrate=N/A dup=1018 drop=263 speed=   1x    frame= 4495 fps= 30 q=38.0 size=N/A time=00:02:29.83 bitrate=N/A dup=1023 drop=265 speed=   1x    [hls @ 0x62754948fc00] Opening 'data/hls/stream2/stream2_segment_117.ts' for writing
[hls @ 0x62754948fc00] Opening 'data/hls/stream2/stream2.m3u8.tmp' for writing
frame= 4511 fps= 30 q=36.0 size=N/A time=00:02:30.36 bitrate=N/A dup=1025 drop=265 speed=   1x    frame= 4526 fps= 30 q=35.0 size=N/A time=00:02:30.86 bitrate=N/A dup=1028 drop=265 speed=   1x    frame= 4542 fps= 30 q=40.0 size=N/A time=00:02:31.40 bitrate=N/A dup=1031 drop=266 speed=   1x    frame= 4558 fps= 30 q=36.0 size=N/A time=00:02:31.93 bitrate=N/A dup=1034 drop=266 speed=   1x    [hls @ 0x62754948fc00] Opening 'data/hls/stream2/stream2_segment_118.ts' for writing
[hls @ 0x62754948fc00] Opening 'data/hls/stream2/stream2.m3u8.tmp' for writing
frame= 4573 fps= 30 q=36.0 size=N/A time=00:02:32.40 bitrate=N/A dup=1037 drop=267 speed=   1x    frame= 4587 fps= 30 q=35.0 size=N/A time=00:02:32.90 bitrate=N/A dup=1042 drop=269 speed=   1x    frame= 4604 fps= 30 q=38.0 size=N/A time=00:02:33.46 bitrate=N/A dup=1047 drop=271 speed=   1x    frame= 4619 fps= 30 q=37.0 size=N/A time=00:02:33.96 bitrate=N/A dup=1050 drop=272 speed=   1x    [hls @ 0x62754948fc00] Opening 'data/hls/stream2/stream2_segment_119.ts' for writing
[hls @ 0x62754948fc00] Opening 'data/hls/stream2/stream2.m3u8.tmp' for writing
frame= 4635 fps= 30 q=36.0 size=N/A time=00:02:34.50 bitrate=N/A dup=1053 drop=272 speed=   1x    frame= 4650 fps= 30 q=35.0 size=N/A time=00:02:35.00 bitrate=N/A dup=1056 drop=272 speed=   1x    frame= 4666 fps= 30 q=38.0 size=N/A time=00:02:35.53 bitrate=N/A dup=1059 drop=273 speed=   1x    [hls @ 0x62754948fc00] Opening 'data/hls/stream2/stream2_segment_120.ts' for writing
[hls @ 0x62754948fc00] Opening 'data/hls/stream2/stream2.m3u8.tmp' for writing
frame= 4681 fps= 30 q=43.0 size=N/A time=00:02:36.03 bitrate=N/A dup=1062 drop=273 speed=   1x    frame= 4697 fps= 30 q=35.0 size=N/A time=00:02:36.56 bitrate=N/A dup=1065 drop=273 speed=   1x    frame= 4713 fps= 30 q=40.0 size=N/A time=00:02:37.10 bitrate=N/A dup=1067 drop=273 speed=   1x    frame= 4729 fps= 30 q=35.0 size=N/A time=00:02:37.63 bitrate=N/A dup=1071 drop=274 speed=   1x    [hls @ 0x62754948fc00] Opening 'data/hls/stream2/stream2_segment_121.ts' for writing
[hls @ 0x62754948fc00] Opening 'data/hls/stream2/stream2.m3u8.tmp' for writing
frame= 4744 fps= 30 q=38.0 size=N/A time=00:02:38.13 bitrate=N/A dup=1075 drop=276 speed=   1x    frame= 4760 fps= 30 q=38.0 size=N/A time=00:02:38.66 bitrate=N/A dup=1079 drop=277 speed=   1x    frame= 4775 fps= 30 q=37.0 size=N/A time=00:02:39.16 bitrate=N/A dup=1083 drop=279 speed=   1x    frame= 4791 fps= 30 q=34.0 size=N/A time=00:02:39.70 bitrate=N/A dup=1087 drop=280 speed=   1x    [hls @ 0x62754948fc00] Opening 'data/hls/stream2/stream2_segment_122.ts' for writing
[hls @ 0x62754948fc00] Opening 'data/hls/stream2/stream2.m3u8.tmp' for writing
frame= 4807 fps= 30 q=41.0 size=N/A time=00:02:40.23 bitrate=N/A dup=1090 drop=280 speed=   1x    frame= 4823 fps= 30 q=40.0 size=N/A time=00:02:40.76 bitrate=N/A dup=1094 drop=281 speed=   1x    frame= 4838 fps= 30 q=35.0 size=N/A time=00:02:41.26 bitrate=N/A dup=1098 drop=283 speed=   1x    frame= 4854 fps= 30 q=42.0 size=N/A time=00:02:41.80 bitrate=N/A dup=1102 drop=284 speed=   1x    [hls @ 0x62754948fc00] Opening 'data/hls/stream2/stream2_segment_123.ts' for writing
[hls @ 0x62754948fc00] Opening 'data/hls/stream2/stream2.m3u8.tmp' for writing
frame= 4869 fps= 30 q=37.0 size=N/A time=00:02:42.30 bitrate=N/A dup=1105 drop=284 speed=   1x    frame= 4885 fps= 30 q=34.0 size=N/A time=00:02:42.83 bitrate=N/A dup=1108 drop=284 speed=   1x    frame= 4902 fps= 30 q=35.0 size=N/A time=00:02:43.36 bitrate=N/A dup=1113 drop=287 speed=   1x    frame= 4916 fps= 30 q=38.0 size=N/A time=00:02:43.86 bitrate=N/A dup=1116 drop=288 speed=   1x    [hls @ 0x62754948fc00] Opening 'data/hls/stream2/stream2_segment_124.ts' for writing
[hls @ 0x62754948fc00] Opening 'data/hls/stream2/stream2.m3u8.tmp' for writing
frame= 4933 fps= 30 q=35.0 size=N/A time=00:02:44.40 bitrate=N/A dup=1120 drop=289 speed=   1x    frame= 4949 fps= 30 q=35.0 size=N/A time=00:02:44.93 bitrate=N/A dup=1124 drop=290 speed=   1x    frame= 4963 fps= 30 q=41.0 size=N/A time=00:02:45.43 bitrate=N/A dup=1129 drop=293 speed=   1x    frame= 4979 fps= 30 q=36.0 size=N/A time=00:02:45.96 bitrate=N/A dup=1133 drop=294 speed=   1x    [hls @ 0x62754948fc00] Opening 'data/hls/stream2/stream2_segment_125.ts' for writing
[hls @ 0x62754948fc00] Opening 'data/hls/stream2/stream2.m3u8.tmp' for writing
frame= 4994 fps= 30 q=34.0 size=N/A time=00:02:46.46 bitrate=N/A dup=1136 drop=294 speed=   1x    frame= 5010 fps= 30 q=33.0 size=N/A time=00:02:47.00 bitrate=N/A dup=1141 drop=296 speed=   1x    frame= 5027 fps= 30 q=37.0 size=N/A time=00:02:47.53 bitrate=N/A dup=1146 drop=299 speed=   1x    [hls @ 0x62754948fc00] Opening 'data/hls/stream2/stream2_segment_126.ts' for writing
[hls @ 0x62754948fc00] Opening 'data/hls/stream2/stream2.m3u8.tmp' for writing
frame= 5041 fps= 30 q=43.0 size=N/A time=00:02:48.03 bitrate=N/A dup=1149 drop=299 speed=   1x    frame= 5056 fps= 30 q=36.0 size=N/A time=00:02:48.53 bitrate=N/A dup=1151 drop=299 speed=   1x    frame= 5071 fps= 30 q=43.0 size=N/A time=00:02:49.03 bitrate=N/A dup=1155 drop=300 speed=   1x    frame= 5087 fps= 30 q=38.0 size=N/A time=00:02:49.56 bitrate=N/A dup=1157 drop=300 speed=   1x    [hls @ 0x62754948fc00] Opening 'data/hls/stream2/stream2_segment_127.ts' for writing
[hls @ 0x62754948fc00] Opening 'data/hls/stream2/stream2.m3u8.tmp' for writing
frame= 5104 fps= 30 q=39.0 size=N/A time=00:02:50.10 bitrate=N/A dup=1160 drop=300 speed=   1x    frame= 5118 fps= 30 q=35.0 size=N/A time=00:02:50.60 bitrate=N/A dup=1163 drop=300 speed=   1x    